HIERARCHY
ROOT reference
{
  OFFSET 0 0 0
  CHANNELS 6 Xposition Yposition Zposition Zrotation Xrotation Yrotation
  JOINT Hips
  {
    OFFSET 387.421 88.6843 214.036
    CHANNELS 3 Zrotation Xrotation Yrotation
    JOINT RightUpLeg
    {
      OFFSET -9.26407 -1.54033 -0.0169218
      CHANNELS 3 Zrotation Xrotation Yrotation
      JOINT RightLeg
      {
        OFFSET 0.0262756 -41.889 0.0389421
        CHANNELS 3 Zrotation Xrotation Yrotation
        JOINT RightFoot
        {
          OFFSET -0.025595 -42.7244 0.117519
          CHANNELS 3 Zrotation Xrotation Yrotation
          End Site
          {
            OFFSET 0 -7.69 17.5
          }
        }
      }
    }
    JOINT LeftUpLeg
    {
      OFFSET 9.28488 -1.63184 0.00456132
      CHANNELS 3 Zrotation Xrotation Yrotation
      JOINT LeftLeg
      {
        OFFSET -0.00133996 -41.8929 0.0117795
        CHANNELS 3 Zrotation Xrotation Yrotation
        JOINT LeftFoot
        {
          OFFSET 0.253805 -40.8902 0.809143
          CHANNELS 3 Zrotation Xrotation Yrotation
          End Site
          {
            OFFSET 0 -7.69 17.5
          }
        }
      }
    }
    JOINT Spine
    {
      OFFSET 0.04218 14.2944 0.0529257
      CHANNELS 3 Zrotation Xrotation Yrotation
      JOINT Spine1
      {
        OFFSET 0.022284 9.72228 0.00997239
        CHANNELS 3 Zrotation Xrotation Yrotation
        JOINT Spine2
        {
          OFFSET 0.0397412 10.1199 -0.0103674
          CHANNELS 3 Zrotation Xrotation Yrotation
          JOINT Spine3
          {
            OFFSET 0.0389473 9.71765 -0.00772733
            CHANNELS 3 Zrotation Xrotation Yrotation
            JOINT Neck
            {
              OFFSET 0.0437972 10.3765 0.0320322
              CHANNELS 3 Zrotation Xrotation Yrotation
              JOINT Head
              {
                OFFSET 0.0431994 9.46781 0.0291763
                CHANNELS 3 Zrotation Xrotation Yrotation
                End Site
                {
                  OFFSET 0 15.95 0
                }
              }
            }
            JOINT RightShoulder
            {
              OFFSET -3.17206 6.93005 0.0018626
              CHANNELS 3 Zrotation Xrotation Yrotation
              JOINT RightArm
              {
                OFFSET -12.781 0.0116363 0.0199633
                CHANNELS 3 Zrotation Xrotation Yrotation
                JOINT RightForeArm
                {
                  OFFSET -26.5135 -0.0113607 0.0486864
                  CHANNELS 3 Zrotation Xrotation Yrotation
                  JOINT RightHand
                  {
                    OFFSET -25.9857 -0.0984063 0.163753
                    CHANNELS 3 Zrotation Xrotation Yrotation
                    JOINT RightHandThumb1
                    {
                      OFFSET -2.48905 0.190105 3.12053
                      CHANNELS 3 Zrotation Xrotation Yrotation
                      JOINT RightHandThumb2
                      {
                        OFFSET -3.68274 0 0
                        CHANNELS 3 Zrotation Xrotation Yrotation
                        JOINT RightHandThumb3
                        {
                          OFFSET -2.55832 0 0
                          CHANNELS 3 Zrotation Xrotation Yrotation
                          End Site
                          {
                            OFFSET -2.194 0 0
                          }
                        }
                      }
                    }
                    JOINT RightInHandIndex
                    {
                      OFFSET -3.22368 0.508421 1.97842
                      CHANNELS 3 Zrotation Xrotation Yrotation
                      JOINT RightHandIndex1
                      {
                        OFFSET -5.21684 -0.091368 0.999158
                        CHANNELS 3 Zrotation Xrotation Yrotation
                        JOINT RightHandIndex2
                        {
                          OFFSET -3.61937 0 0
                          CHANNELS 3 Zrotation Xrotation Yrotation
                          JOINT RightHandIndex3
                          {
                            OFFSET -2.0521 0 0
                            CHANNELS 3 Zrotation Xrotation Yrotation
                            End Site
                            {
                              OFFSET -1.805 0 0
                            }
                          }
                        }
                      }
                    }
                    JOINT RightInHandMiddle
                    {
                      OFFSET -3.38211 0.517263 0.756737
                      CHANNELS 3 Zrotation Xrotation Yrotation
                      JOINT RightHandMiddle1
                      {
                        OFFSET -5.17411 -0.084 0.313895
                        CHANNELS 3 Zrotation Xrotation Yrotation
                        JOINT RightHandMiddle2
                        {
                          OFFSET -3.94947 0 0
                          CHANNELS 3 Zrotation Xrotation Yrotation
                          JOINT RightHandMiddle3
                          {
                            OFFSET -2.47579 0 0
                            CHANNELS 3 Zrotation Xrotation Yrotation
                            End Site
                            {
                              OFFSET -1.975 0 0
                            }
                          }
                        }
                      }
                    }
                    JOINT RightInHandRing
                    {
                      OFFSET -3.36516 0.537895 -0.128947
                      CHANNELS 3 Zrotation Xrotation Yrotation
                      JOINT RightHandRing1
                      {
                        OFFSET -4.63474 -0.022105 -0.478947
                        CHANNELS 3 Zrotation Xrotation Yrotation
                        JOINT RightHandRing2
                        {
                          OFFSET -3.44238 0 0
                          CHANNELS 3 Zrotation Xrotation Yrotation
                          JOINT RightHandRing3
                          {
                            OFFSET -2.3881 0 0
                            CHANNELS 3 Zrotation Xrotation Yrotation
                            End Site
                            {
                              OFFSET -1.857 0 0
                            }
                          }
                        }
                      }
                    }
                    JOINT RightInHandPinky
                    {
                      OFFSET -3.16105 0.469368 -1.20179
                      CHANNELS 3 Zrotation Xrotation Yrotation
                      JOINT RightHandPinky1
                      {
                        OFFSET -4.14105 -0.022105 -1.09053
                        CHANNELS 3 Zrotation Xrotation Yrotation
                        JOINT RightHandPinky2
                        {
                          OFFSET -2.75653 0 0
                          CHANNELS 3 Zrotation Xrotation Yrotation
                          JOINT RightHandPinky3
                          {
                            OFFSET -1.74189 0 0
                            CHANNELS 3 Zrotation Xrotation Yrotation
                            End Site
                            {
                              OFFSET -1.645 0 0
                            }
                          }
                        }
                      }
                    }
                  }
                }
              }
            }
            JOINT LeftShoulder
            {
              OFFSET 3.23848 6.90919 -0.0119143
              CHANNELS 3 Zrotation Xrotation Yrotation
              JOINT LeftArm
              {
                OFFSET 12.8241 -0.0554782 -0.0520121
                CHANNELS 3 Zrotation Xrotation Yrotation
                JOINT LeftForeArm
                {
                  OFFSET 26.4865 -0.0658343 -0.0244543
                  CHANNELS 3 Zrotation Xrotation Yrotation
                  JOINT LeftHand
                  {
                    OFFSET 25.985 -0.0475988 -0.0124738
                    CHANNELS 3 Zrotation Xrotation Yrotation
                    JOINT LeftHandThumb1
                    {
                      OFFSET 2.48905 0.190105 3.12053
                      CHANNELS 3 Zrotation Xrotation Yrotation
                      JOINT LeftHandThumb2
                      {
                        OFFSET 3.68274 0 0
                        CHANNELS 3 Zrotation Xrotation Yrotation
                        JOINT LeftHandThumb3
                        {
                          OFFSET 2.55832 0 0
                          CHANNELS 3 Zrotation Xrotation Yrotation
                          End Site
                          {
                            OFFSET 2.194 0 0
                          }
                        }
                      }
                    }
                    JOINT LeftInHandIndex
                    {
                      OFFSET 3.22368 0.508421 1.97842
                      CHANNELS 3 Zrotation Xrotation Yrotation
                      JOINT LeftHandIndex1
                      {
                        OFFSET 5.21684 -0.091368 0.999158
                        CHANNELS 3 Zrotation Xrotation Yrotation
                        JOINT LeftHandIndex2
                        {
                          OFFSET 3.61937 0 0
                          CHANNELS 3 Zrotation Xrotation Yrotation
                          JOINT LeftHandIndex3
                          {
                            OFFSET 2.0521 0 0
                            CHANNELS 3 Zrotation Xrotation Yrotation
                            End Site
                            {
                              OFFSET 1.805 0 0
                            }
                          }
                        }
                      }
                    }
                    JOINT LeftInHandMiddle
                    {
                      OFFSET 3.38211 0.517263 0.756737
                      CHANNELS 3 Zrotation Xrotation Yrotation
                      JOINT LeftHandMiddle1
                      {
                        OFFSET 5.17411 -0.084 0.313895
                        CHANNELS 3 Zrotation Xrotation Yrotation
                        JOINT LeftHandMiddle2
                        {
                          OFFSET 3.94947 0 0
                          CHANNELS 3 Zrotation Xrotation Yrotation
                          JOINT LeftHandMiddle3
                          {
                            OFFSET 2.47579 0 0
                            CHANNELS 3 Zrotation Xrotation Yrotation
                            End Site
                            {
                              OFFSET 1.975 0 0
                            }
                          }
                        }
                      }
                    }
                    JOINT LeftInHandRing
                    {
                      OFFSET 3.36516 0.537895 -0.128947
                      CHANNELS 3 Zrotation Xrotation Yrotation
                      JOINT LeftHandRing1
                      {
                        OFFSET 4.63474 -0.022105 -0.478947
                        CHANNELS 3 Zrotation Xrotation Yrotation
                        JOINT LeftHandRing2
                        {
                          OFFSET 3.44238 0 0
                          CHANNELS 3 Zrotation Xrotation Yrotation
                          JOINT LeftHandRing3
                          {
                            OFFSET 2.3881 0 0
                            CHANNELS 3 Zrotation Xrotation Yrotation
                            End Site
                            {
                              OFFSET 1.857 0 0
                            }
                          }
                        }
                      }
                    }
                    JOINT LeftInHandPinky
                    {
                      OFFSET 3.16105 0.469368 -1.20179
                      CHANNELS 3 Zrotation Xrotation Yrotation
                      JOINT LeftHandPinky1
                      {
                        OFFSET 4.14105 -0.022105 -1.09053
                        CHANNELS 3 Zrotation Xrotation Yrotation
                        JOINT LeftHandPinky2
                        {
                          OFFSET 2.75653 0 0
                          CHANNELS 3 Zrotation Xrotation Yrotation
                          JOINT LeftHandPinky3
                          {
                            OFFSET 1.74189 0 0
                            CHANNELS 3 Zrotation Xrotation Yrotation
                            End Site
                            {
                              OFFSET 1.645 0 0
                            }
                          }
                        }
                      }
                    }
                  }
                }
              }
            }
          }
        }
      }
    }
  }
}
MOTION
Frames: 2
Frame Time: 0.00833333
3.000000000000000000e+02 0.000000000000000000e+00 0.000000000000000000e+00 0.000000000000000000e+00 0.000000000000000000e+00 0.000000000000000000e+00 1.390346221559674370e-02 9.404987013586502131e-02 1.113777788996157952e-01 -8.116079275669932369e-02 -1.611348316749290632e-02 -5.351634345117542435e-02 3.044489793196718946e-02 -3.911638659571351796e-03 -1.763805019257008444e-01 1.177059295612558829e-02 5.586033598664817169e-03 1.564613645944146203e-02 -4.525869102888677165e-02 -3.867341722473283117e-02 -1.927400835980012384e-01 -1.962720205242768010e-02 -3.360548210524265389e-02 1.523449745630843163e-02 -1.510769597150185550e-02 5.941724740686042672e-03 1.533060986554128646e-02 5.528279745271551249e-02 -1.475270004115037878e-02 -6.001955375537570275e-02 1.184071257016221408e-02 -7.436938086766200703e-03 -1.291343056630179544e-02 1.923548215428099589e-02 -1.207259963192022431e-02 -1.848349364879130902e-02 3.387116939878736816e-04 9.087072390819523953e-04 -5.227247682706574403e-03 3.958589086754593298e-04 1.007301961688746375e-03 -6.148662783477296112e-03 1.120601596293863307e-02 -1.118794289266755206e-02 -5.276520643028434487e-02 -1.182397683051583798e-01 -1.946441190023850618e-02 2.581864293313932968e-01 -2.516299320853513932e-01 2.496403856894138518e-01 3.377096883001320382e-01 -7.410677713084781182e-01 -4.737866381667148463e-01 -9.388381925988108501e-01 -1.938018099943878414e-01 5.089813167429211443e-03 -2.595066450081276455e-01 0.000000000000000000e+00 0.000000000000000000e+00 0.000000000000000000e+00 1.051353313264146810e-14 -4.109943125802590351e-15 0.000000000000000000e+00 -2.976293986879261371e-14 7.022169126725622615e-15 0.000000000000000000e+00 2.037176299444150441e-15 9.826064689094304169e-16 -4.366940066206098812e-15 0.000000000000000000e+00 0.000000000000000000e+00 0.000000000000000000e+00 0.000000000000000000e+00 -4.968886484316624992e-16 3.787110004948449163e-14 0.000000000000000000e+00 -2.486530952606654412e-15 -1.006320884143058179e-14 2.037176299444150441e-15 9.826064689094304169e-16 -4.366940066206098812e-15 0.000000000000000000e+00 5.841144022665802545e-15 1.088031254006528832e-14 0.000000000000000000e+00 1.566273081830466875e-14 3.132357291670367821e-14 0.000000000000000000e+00 1.735288759556369346e-15 1.735871536434010348e-15 2.037176299444150441e-15 9.826064689094304169e-16 -4.366940066206098812e-15 0.000000000000000000e+00 0.000000000000000000e+00 0.000000000000000000e+00 0.000000000000000000e+00 2.068889631072071482e-15 2.123993907610199326e-14 0.000000000000000000e+00 -4.736550932278923558e-15 -7.272082986952427469e-15 2.037176299444150441e-15 9.826064689094304169e-16 -4.366940066206098812e-15 0.000000000000000000e+00 0.000000000000000000e+00 0.000000000000000000e+00 0.000000000000000000e+00 9.122014963593974542e-15 7.254618543288610246e-15 0.000000000000000000e+00 1.850884388283120721e-16 -1.519681140195875214e-15 -6.684201299702147159e-02 1.023738015490630315e-01 2.296545800731334963e-01 2.681116787327617046e-02 8.924605575445885772e-03 -2.387241152873788297e-03 -5.181817130442101238e-02 -7.304806493865116934e-01 9.678438511337517092e-02 -1.265501612920417185e-01 3.635578673415622020e-01 -9.440389999058612647e-02 0.000000000000000000e+00 0.000000000000000000e+00 0.000000000000000000e+00 1.155228228477824215e-15 -2.304415427182137883e-16 0.000000000000000000e+00 -1.200658779878323384e-14 -6.664070150019432214e-16 0.000000000000000000e+00 2.298751323036931755e-15 -1.919393578585452452e-15 -2.739093590454399114e-16 0.000000000000000000e+00 0.000000000000000000e+00 0.000000000000000000e+00 0.000000000000000000e+00 3.509616756546168375e-15 -5.212113501860041288e-15 0.000000000000000000e+00 3.848672179734621553e-15 -1.359336137198992630e-14 2.298751323036931755e-15 -1.919393578585452452e-15 -2.739093590454399114e-16 0.000000000000000000e+00 2.877209541067539974e-15 -2.136825533200560618e-15 0.000000000000000000e+00 1.628671039658236176e-15 -1.166546200653651455e-14 0.000000000000000000e+00 1.708072789289827630e-15 -8.323158130363581732e-15 2.298751323036931755e-15 -1.919393578585452452e-15 -2.739093590454399114e-16 0.000000000000000000e+00 0.000000000000000000e+00 0.000000000000000000e+00 0.000000000000000000e+00 5.768869266366115726e-15 -3.685034325067422223e-15 0.000000000000000000e+00 7.375837022554593025e-16 -1.105746291744036871e-14 2.298751323036931755e-15 -1.919393578585452452e-15 -2.739093590454399114e-16 0.000000000000000000e+00 0.000000000000000000e+00 0.000000000000000000e+00 0.000000000000000000e+00 -5.671321320730410832e-15 -1.423192764002587753e-14 0.000000000000000000e+00 -2.780250275304907475e-15 -1.907974483811456505e-15
3.000000000000000000e+02 0.000000000000000000e+00 0.000000000000000000e+00 0.000000000000000000e+00 0.000000000000000000e+00 0.000000000000000000e+00 9.558895565535607472e-03 5.677361891343074562e-02 5.948243628788292547e-02 -3.792247544801048698e-02 -1.394218568725379484e-02 -2.090279835140957526e-02 1.879656756922616287e-02 4.703293671170159264e-03 -1.102939153753067780e-01 6.786157531853270752e-03 1.108377747784315822e-03 1.480999680805751041e-02 -1.730532957877018926e-02 -1.688490720521088409e-02 -9.855799972661442865e-02 -5.688814161240161350e-03 -2.587051603392066454e-02 5.201593251670346904e-03 -1.347884235749585886e-02 2.832541562586272758e-03 6.036491264809804025e-03 2.510709392518732652e-02 -8.060167108148722642e-03 -2.786363722673253218e-02 5.603154493190220381e-03 -3.609195009390365593e-03 -5.933337786125264177e-03 8.715444667227035050e-03 -5.779187411812887476e-03 -8.453721186509713034e-03 8.858009341218163121e-04 1.475564005133114213e-04 -2.925652329268191212e-03 1.129773243123968155e-03 3.905707316544209371e-04 -3.601278528735700479e-03 1.642435221954326868e-02 -1.287954040218542567e-02 -2.542939738258090734e-02 -5.780923252325315120e-02 -2.485854552393835029e-02 1.609161698617454228e-01 -1.799492945838915281e-01 1.594164029722329456e-01 2.041417936749681250e-01 -6.298056069881103891e-01 -2.876401966824379541e-01 -7.740760250656620878e-01 -1.622347593174799651e-01 1.656187619524143034e-02 -1.950673326620740167e-01 0.000000000000000000e+00 0.000000000000000000e+00 0.000000000000000000e+00 1.226427996227746252e-14 -3.069795120696366173e-15 0.000000000000000000e+00 -1.651021941242001424e-14 4.268962895183837844e-15 0.000000000000000000e+00 2.085117182517552118e-15 7.039486554781936518e-16 -2.664396173305650197e-15 0.000000000000000000e+00 0.000000000000000000e+00 0.000000000000000000e+00 0.000000000000000000e+00 2.590984212343059061e-16 2.588009994143936529e-14 0.000000000000000000e+00 -2.188852435762593824e-15 -3.070784109695303485e-15 2.085117182517552118e-15 7.039486554781936518e-16 -2.664396173305650197e-15 0.000000000000000000e+00 3.921016344754855783e-15 7.722245885726188623e-15 0.000000000000000000e+00 1.021499599324116091e-14 2.121634683070012341e-14 0.000000000000000000e+00 3.062741705963200975e-15 2.540709542663016435e-15 2.085117182517552118e-15 7.039486554781936518e-16 -2.664396173305650197e-15 0.000000000000000000e+00 0.000000000000000000e+00 0.000000000000000000e+00 0.000000000000000000e+00 1.017915535985908496e-15 1.591130475207962544e-14 0.000000000000000000e+00 -2.413830865686968338e-15 -2.757536667515503923e-15 2.085117182517552118e-15 7.039486554781936518e-16 -2.664396173305650197e-15 0.000000000000000000e+00 0.000000000000000000e+00 0.000000000000000000e+00 0.000000000000000000e+00 4.401938178568265013e-15 4.709360984650411841e-15 0.000000000000000000e+00 1.636616553775232936e-16 2.334513976254892533e-16 -3.643197867539722801e-02 5.301489620832453009e-02 1.355957813302028914e-01 2.756738058523264256e-02 1.670632129294112936e-02 -1.814891170623561881e-02 -2.882664606423217604e-02 -5.461859821670740356e-01 6.452667116550769855e-02 -4.525548402559974315e-02 3.557541574469190726e-01 -3.308141413161706096e-02 0.000000000000000000e+00 0.000000000000000000e+00 0.000000000000000000e+00 1.694368770446826381e-15 -6.247610711132326444e-16 0.000000000000000000e+00 -6.217186432441333804e-15 -1.683401090301038099e-15 0.000000000000000000e+00 1.705426747247440639e-15 -2.109036137011540045e-15 -5.319669472367401570e-16 0.000000000000000000e+00 0.000000000000000000e+00 0.000000000000000000e+00 0.000000000000000000e+00 1.875050614354941591e-15 -4.046360558807054208e-15 0.000000000000000000e+00 2.320059643186947710e-15 -9.464843780048867069e-15 1.705426747247440639e-15 -2.109036137011540045e-15 -5.319669472367401570e-16 0.000000000000000000e+00 6.529954989259137953e-16 -1.464434815924446901e-15 0.000000000000000000e+00 -1.557118000103616794e-16 -7.719209755114501881e-15 0.000000000000000000e+00 1.226238232458126973e-15 -4.731436904506444431e-15 1.705426747247440639e-15 -2.109036137011540045e-15 -5.319669472367401570e-16 0.000000000000000000e+00 0.000000000000000000e+00 0.000000000000000000e+00 0.000000000000000000e+00 3.676679513872853162e-15 -2.517837552740995383e-15 0.000000000000000000e+00 7.502997514360401532e-16 -7.237927055906432135e-15 1.705426747247440639e-15 -2.109036137011540045e-15 -5.319669472367401570e-16 0.000000000000000000e+00 0.000000000000000000e+00 0.000000000000000000e+00 0.000000000000000000e+00 -3.594553884422661985e-15 -8.475622730479054478e-15 0.000000000000000000e+00 -1.352905105980278223e-15 -1.734453872423664992e-15
